<svg xmlns="http://www.w3.org/2000/svg" width="816" height="169" viewBox="0 0 816 169">
  <g fill="none" fill-rule="evenodd">
    <path class="dark" fill="#1A3352" fill-rule="nonzero" d="M258.311465,71.2370021 C258.311465,62.6015707 252.545756,57.7737945 241.667071,57.7737945 C235.916448,57.7737945 229.764604,59.3762653 223.443129,62.5239434 C223.21448,62.6377957 222.955749,62.7709967 222.667146,62.9234644 C220.445255,64.0972796 217.692491,63.247646 216.518675,61.0257546 L216.510855,61.0108863 L213.438801,55.1435074 C212.274839,52.920427 213.130429,50.1746758 215.351188,49.0062929 C216.370511,48.4700081 217.210316,48.0409409 217.871565,47.718677 C227.030764,43.2548835 234.958092,41.3626834 245.812008,41.3626834 C265.994492,41.3626834 277.758998,51.6053628 277.906357,69.0967753 L278.03812,115.080782 C278.045281,117.593667 276.01402,119.636598 273.501135,119.643797 L273.488101,119.643816 L263.004393,119.643816 C260.491498,119.643816 258.454393,117.606711 258.454393,115.093816 L258.454393,111.493647 C253.016988,117.423748 244.740445,120.499161 234.377699,120.499161 C217.994015,120.499161 207,110.46513 207,96.1845912 C207,81.5149597 217.954848,72.7263372 236.664561,72.5828092 L258.311465,72.5828092 L258.311465,71.2370021 Z M239.666067,86.2853249 C229.95606,86.2853249 225.880251,88.8833997 225.880251,95.04413 C225.880251,101.110388 230.767936,104.943396 238.808494,104.943396 C249.118533,104.943396 257.354954,99.5214768 258.311465,92.4780922 L258.311465,86.2853249 L239.666067,86.2853249 Z M331.939339,41.5052411 C353.914032,41.5052411 368.750343,57.5118514 368.750343,81.2160377 C368.750343,104.644199 354.202423,120.356604 332.225196,120.356604 C321.375754,120.356604 312.677402,116.278676 306.862142,108.629087 L306.862142,142.75 C306.862142,145.262896 304.825038,147.3 302.312142,147.3 L291.531389,147.3 C289.018493,147.3 286.981389,145.262896 286.981389,142.75 L286.981389,46.6254717 C286.981389,44.1125761 289.018493,42.0754717 291.531389,42.0754717 L302.312142,42.0754717 C304.825038,42.0754717 306.862142,44.1125761 306.862142,46.6254717 L306.862142,53.1965729 C312.542067,45.593706 321.208169,41.5052411 331.939339,41.5052411 Z M327.794401,103.090147 C340.000014,103.090147 348.583732,93.8421932 348.583732,80.6458071 C348.583732,67.5717153 339.981257,58.3440252 327.794401,58.3440252 C315.484885,58.3440252 306.862142,67.5500316 306.862142,80.6458071 C306.862142,93.9554191 315.418122,103.090147 327.794401,103.090147 Z M423.121154,41.5052411 C445.095847,41.5052411 459.932158,57.5118514 459.932158,81.2160377 C459.932158,104.644199 445.384238,120.356604 423.407011,120.356604 C412.557568,120.356604 403.859217,116.278676 398.043957,108.629087 L398.043957,142.75 C398.043957,145.262896 396.006852,147.3 393.493957,147.3 L382.713204,147.3 C380.200308,147.3 378.163204,145.262896 378.163204,142.75 L378.163204,46.6254717 C378.163204,44.1125761 380.200308,42.0754717 382.713204,42.0754717 L393.493957,42.0754717 C396.006852,42.0754717 398.043957,44.1125761 398.043957,46.6254717 L398.043957,53.1965729 C403.723882,45.593706 412.389984,41.5052411 423.121154,41.5052411 Z M418.976216,103.090147 C431.181829,103.090147 439.765547,93.8421932 439.765547,80.6458071 C439.765547,67.5717153 431.163071,58.3440252 418.976216,58.3440252 C406.6667,58.3440252 398.043957,67.5500316 398.043957,80.6458071 C398.043957,93.9554191 406.599937,103.090147 418.976216,103.090147 Z M525.148528,64.6773577 C520.598468,60.9985396 514.936052,59.0568134 508.364923,59.0568134 C496.399151,59.0568134 488.147308,67.9264794 488.147308,80.9309224 C488.147308,94.1801452 496.362665,103.090147 508.364923,103.090147 C514.523966,103.090147 519.776725,101.620673 523.877984,98.7427769 C524.494021,98.310497 525.232267,97.6740957 526.087809,96.8353171 C527.749758,95.2059166 530.37341,95.0934252 532.168733,96.5745888 L537.928199,101.326219 C539.866568,102.925397 540.141536,105.793145 538.542358,107.731514 C538.503738,107.777906 538.503738,107.777906 538.464304,107.823607 C537.21688,109.256417 536.13849,110.362518 535.224384,111.144456 C528.193727,117.158564 518.656022,120.356604 507.364421,120.356604 C484.11618,120.356604 468.123626,104.36361 468.123626,81.0734801 C468.123626,57.5484976 484.208659,41.5052411 507.650279,41.5052411 C520.14203,41.5052411 530.634552,45.550146 537.81472,52.9958304 C539.408793,54.6488501 539.361007,57.2811383 537.707987,58.8752107 L537.680577,58.9013846 L531.50523,64.7488297 C529.815971,66.3483727 527.192201,66.4160102 525.422779,64.9056236 C525.326114,64.8231095 525.234676,64.7470098 525.148528,64.6773577 Z M560.826008,10 C567.040693,10 571.481029,14.5630092 571.481029,20.9141509 C571.481029,27.2652927 567.040693,31.8283019 560.826008,31.8283019 C554.611322,31.8283019 550.170987,27.2652927 550.170987,20.9141509 C550.170987,14.5630092 554.611322,10 560.826008,10 Z M555.435631,42.0754717 L566.216384,42.0754717 C568.72928,42.0754717 570.766384,44.1125761 570.766384,46.6254717 L570.766384,115.093816 C570.766384,117.606711 568.72928,119.643816 566.216384,119.643816 L555.435631,119.643816 C552.922736,119.643816 550.885631,117.606711 550.885631,115.093816 L550.885631,46.6254717 C550.885631,44.1125761 552.922736,42.0754717 555.435631,42.0754717 Z M622.019741,41.8443963 C622.380714,41.7849331 622.798875,41.7292091 623.274888,41.6770022 C625.772804,41.4030444 628.019854,43.2059176 628.293813,45.7038335 C628.31188,45.8685656 628.320934,46.0341617 628.320934,46.1998815 L628.320934,56.0599142 C628.320934,58.5277364 626.353654,60.5456817 623.886631,60.6084333 C623.247503,60.6246903 622.71064,60.6534032 622.277532,60.6942133 C609.899595,61.8605381 602.30788,70.1773559 602.30788,82.2139413 L602.30788,115.093816 C602.30788,117.606711 600.270775,119.643816 597.75788,119.643816 L586.977126,119.643816 C584.464231,119.643816 582.427126,117.606711 582.427126,115.093816 L582.427126,46.6254717 C582.427126,44.1125761 584.464231,42.0754717 586.977126,42.0754717 L597.75788,42.0754717 C600.270775,42.0754717 602.30788,44.1125761 602.30788,46.6254717 L602.30788,54.93319 C606.751525,47.7110202 613.468224,43.2530913 622.019741,41.8443963 Z M688.008579,64.9562591 C686.963152,64.0621289 686.074199,63.3872548 685.346495,62.933227 C681.262355,60.3850583 676.446087,59.0568134 671.010558,59.0568134 C659.044785,59.0568134 650.792943,67.9264794 650.792943,80.9309224 C650.792943,94.1801452 659.008299,103.090147 671.010558,103.090147 C676.775368,103.090147 681.7487,101.802579 685.725985,99.2755522 C686.55449,98.7491491 687.557594,97.9194442 688.727897,96.7884848 C690.392541,95.1798174 692.999671,95.0774426 694.785326,96.5506293 L700.558746,101.313771 C702.497122,102.912946 702.772092,105.780699 701.172911,107.719071 C701.128157,107.772756 701.128157,107.772756 701.082312,107.825513 C699.631679,109.477706 698.379934,110.736229 697.321289,111.603939 C690.343224,117.323452 681.007376,120.356604 670.010056,120.356604 C646.761814,120.356604 630.769261,104.36361 630.769261,81.0734801 C630.769261,57.5484976 646.854293,41.5052411 670.295913,41.5052411 C681.589177,41.5052411 691.2614,44.8095792 698.334045,50.9742513 C698.862061,51.4344817 699.474339,52.0310386 700.172816,52.7650611 C701.905082,54.5854759 701.833619,57.4654932 700.0132,59.1977565 L700.005089,59.205456 L694.094391,64.8023041 C692.403919,66.4030267 689.777829,66.4694587 688.008579,64.9562591 Z M714.89785,12.5660377 L725.678603,12.5660377 C728.191499,12.5660377 730.228603,14.6031421 730.228603,17.1160377 L730.228603,115.093816 C730.228603,117.606711 728.191499,119.643816 725.678603,119.643816 L714.89785,119.643816 C712.384954,119.643816 710.34785,117.606711 710.34785,115.093816 L710.34785,17.1160377 C710.34785,14.6031421 712.384954,12.5660377 714.89785,12.5660377 Z M779.869767,104.08805 C785.961852,104.08805 791.700682,102.251527 796.463289,98.7819819 C796.721276,98.5940393 797.01607,98.3631875 797.346963,98.0897678 C799.181953,96.5734998 801.875505,96.7278694 803.525252,98.443851 L808.172299,103.27747 C809.913867,105.088977 809.857181,107.969312 808.045684,109.710887 C808.001752,109.753123 807.956976,109.794473 807.911382,109.834911 C806.11444,111.428653 804.595033,112.627464 803.347457,113.433531 C796.336597,117.963291 787.787991,120.356604 778.29755,120.356604 C754.347246,120.356604 738.34211,104.517753 738.34211,81.0734801 C738.34211,57.5986057 754.51951,41.5052411 777.868763,41.5052411 C802.273606,41.5052411 815.152061,55.885865 815.299397,81.3412904 C815.30287,81.9414371 815.291337,82.6876265 815.264864,83.5808089 C815.191978,86.0401376 813.177271,87.9960168 810.716861,87.9960168 L758.826233,87.9960168 C761.403562,98.0432941 769.283675,104.08805 779.869767,104.08805 Z M796.908658,74.293501 C796.223367,63.7721654 789.004652,57.2035639 778.011692,57.2035639 C767.650152,57.2035639 760.23933,63.7056344 758.339424,74.293501 L796.908658,74.293501 Z"/>
    <path fill="#FF8E34" d="M61.3117257,120.254175 C74.2092176,130.773504 76.3804501,141.949895 67.8254233,153.783346 C57.2798576,168.031539 37.7610616,173.206944 21.2389516,165.191345 L21.10057,165.12421 C21.0606205,165.104828 21.0207056,165.085376 20.9808253,165.065853 C2.40779039,155.973532 -5.27189422,133.558477 3.82776967,115.000429 L24.4236861,72.9966769 L35.9970024,49.3938086 L49.9061854,21.0271239 C56.6652269,7.24259015 70.7626606,-0.559328685 85.19389,0.0312778162 C99.1343943,-0.0215246773 112.551631,7.71586483 119.093815,21.0581332 L165.17223,115.031438 C174.271894,133.589487 166.59221,156.004541 148.019175,165.096862 C147.979294,165.116386 147.93938,165.135838 147.89943,165.155219 L147.761048,165.222354 C129.30217,174.177565 107.102868,166.667937 97.8552181,148.436329 C93.0620808,138.364027 96.2587243,128.856917 107.445149,119.914998 L107.441449,119.914998 C115.854511,113.124581 121.235017,102.732436 121.235017,91.0846204 C121.235017,70.626996 104.637444,54.0428147 84.1632995,54.0428147 C63.689155,54.0428147 47.0915815,70.626996 47.0915815,91.0846204 C47.0915815,102.92812 52.6543923,113.473404 61.3117257,120.254175 Z M84.1967831,110.49759 C73.4391818,110.49759 64.7184228,101.783867 64.7184228,91.0349462 C64.7184228,80.2860249 73.4391818,71.5723025 84.1967831,71.5723025 C94.9543844,71.5723025 103.675143,80.2860249 103.675143,91.0349462 C103.675143,101.783867 94.9543844,110.49759 84.1967831,110.49759 Z"/>
  </g>
</svg>
