
<svg width="774px" height="131px" viewBox="0 0 774 131" version="1.1" xmlns="http://www.w3.org/2000/svg" xmlns:xlink="http://www.w3.org/1999/xlink">
    <defs>
        <linearGradient x1="0%" y1="0%" x2="0%" y2="66.2899735%" id="linearGradient-1">
            <stop stop-color="#3023AE" offset="0%"></stop>
            <stop stop-color="#C86DD7" offset="100%"></stop>
        </linearGradient>
        <linearGradient x1="0%" y1="2.66595844e-14%" x2="0%" y2="66.5980524%" id="linearGradient-2">
            <stop stop-color="#3023AE" offset="0%"></stop>
            <stop stop-color="#C86DD7" offset="100%"></stop>
        </linearGradient>
        <linearGradient x1="0%" y1="-3.14007074e-14%" x2="0%" y2="66.2888503%" id="linearGradient-3">
            <stop stop-color="#3023AE" offset="0%"></stop>
            <stop stop-color="#C86DD7" offset="100%"></stop>
        </linearGradient>
        <linearGradient x1="-2.26031176e-13%" y1="0%" x2="-2.26031176e-13%" y2="66.5974208%" id="linearGradient-4">
            <stop stop-color="#3023AE" offset="0%"></stop>
            <stop stop-color="#C86DD7" offset="100%"></stop>
        </linearGradient>
        <linearGradient x1="-5.84789584e-16%" y1="0%" x2="-5.84789584e-16%" y2="147.058824%" id="linearGradient-5">
            <stop stop-color="#3023AE" offset="0%"></stop>
            <stop stop-color="#C86DD7" offset="100%"></stop>
        </linearGradient>
    </defs>
    <g id="Page-1" stroke="none" stroke-width="1" fill="none" fill-rule="evenodd">
        <g id="FullColor_1024x1024" fill-rule="nonzero">
            <g id="logo-logo">
                <g id="Group" transform="translate(90.000000, 73.000000) scale(-1, 1) rotate(-180.000000) translate(-90.000000, -73.000000) translate(52.000000, 43.000000)" fill="url(#linearGradient-1)">
                    <path d="M0.100840285,58.8743652 C32.6825644,50.6481015 77.1360127,28.4959037 45.8351506,0.161068528 C95.415323,25.9693103 86.010323,66.6179916 0.100840285,58.8743652" id="Path"></path>
                </g>
                <g id="Group" transform="translate(66.500000, 96.000000) scale(-1, 1) rotate(-180.000000) translate(-66.500000, -96.000000) translate(0.000000, 61.000000)" fill="url(#linearGradient-2)">
                    <path d="M0.324043402,44.851592 C8.37646914,35.2494892 23.8953305,19.0847229 72.3251078,19.1920126 C109.588152,19.1920126 135.737137,47.9463116 124.461766,69.8723397 C138.848152,50.0263584 135.681172,19.6185546 105.291989,6.81444249 C75.0114444,-4.86934256 24.2706276,-0.707613586 0.268078055,15.1362649 L0.324043402,44.851592" id="Path"></path>
                </g>
                <g id="Group" transform="translate(44.000000, 57.000000) scale(-1, 1) rotate(-180.000000) translate(-44.000000, -57.000000) translate(6.000000, 27.000000)" fill="url(#linearGradient-3)">
                    <path d="M75.8991597,1.1248217 C43.3141597,9.35108543 -1.1360127,31.5032832 30.1648494,59.8394371 C-19.415323,34.0311953 -10.010323,-6.61748599 75.8991597,1.1248217" id="Path"></path>
                </g>
                <g id="Group" transform="translate(66.500000, 35.000000) scale(-1, 1) rotate(-180.000000) translate(-66.500000, -35.000000) " fill="url(#linearGradient-4)">
                    <path d="M132.676681,25.1480772 C124.624255,34.7514885 109.105394,50.9162548 60.6756168,50.8089651 C23.4125723,50.8089651 -2.73641289,22.054666 8.5389584,0.127329585 C-5.85071982,19.9733109 -2.68044754,50.382423 27.7087356,63.1865352 C57.9892802,74.8690118 108.730097,70.7085913 132.732647,54.8634044 L132.676681,25.1480772" id="Path"></path>
                </g>
            </g>
            <g id="Group" transform="translate(170.000000, 12.000000)" fill="url(#linearGradient-5)">
                <path d="M6.97070766,96.5643028 L0,96.5643028 L0,85.1338105 L13.8776102,85.1338105 C13.8776102,87.0336153 14.2870263,88.6590038 15.1058585,90.0099761 C15.9353248,91.3609485 17.0306458,92.4586135 18.3918213,93.3029712 C19.7529969,94.1473289 21.2949536,94.7700427 23.0176914,95.1711126 C24.7297951,95.561628 26.4791183,95.7568857 28.2656613,95.7568857 L28.2656613,95.7568857 C30.0096674,95.7568857 31.6845514,95.5510735 33.2903132,95.1394491 C34.9067092,94.7172703 36.3263728,94.0945565 37.5493039,93.2713077 C38.7722351,92.448059 39.745263,91.4612159 40.4683875,90.3107786 C41.1808778,89.1603412 41.537123,87.8515868 41.537123,86.3845153 L41.537123,86.3845153 C41.537123,84.1680763 40.8086814,82.2841032 39.3517981,80.732596 C37.9055491,79.1810887 35.4384184,77.7878985 31.950406,76.5530254 L31.950406,76.5530254 L18.6948956,71.6293646 C13.2927301,69.7295597 9.28364269,67.3020314 6.66763341,64.3467794 C4.06225831,61.402082 2.75957077,57.7132943 2.75957077,53.2804164 L2.75957077,53.2804164 C2.75957077,50.3568279 3.30191415,47.6548833 4.38660093,45.1745825 C5.48192189,42.6942818 7.07173241,40.5570014 9.15603248,38.7627413 C11.2296984,36.9684812 13.7606342,35.5594593 16.7488399,34.5356756 C19.7370456,33.5118919 23.1559358,33 27.0055104,33 L27.0055104,33 C31.9610402,33 36.1136891,33.6913179 39.4634571,35.0739536 C42.8132251,36.4460348 45.8280162,38.7944047 48.5078306,42.1190631 L48.5078306,42.1190631 L55,42.1190631 L55,53.5495554 L41.2659513,53.5495554 C41.2659513,51.6919685 40.8299497,50.1087978 39.9579466,48.8000434 C39.0859435,47.4912889 37.95872,46.4252874 36.5762761,45.6020386 C35.1938322,44.7787899 33.6518755,44.1824622 31.950406,43.8130557 C30.2595708,43.4330948 28.6112722,43.2431143 27.0055104,43.2431143 L27.0055104,43.2431143 C25.2189675,43.2431143 23.5759861,43.4436492 22.0765661,43.8447191 C20.5771462,44.2457891 19.295727,44.8210077 18.2323086,45.5703752 C17.158256,46.3197426 16.3181555,47.2379816 15.712007,48.3250922 C15.1058585,49.4122027 14.8027842,50.6206897 14.8027842,51.950553 L14.8027842,51.950553 C14.8027842,54.2619822 15.5099575,56.093183 16.9243039,57.4441553 C18.3280162,58.7951276 20.683488,60.0458324 23.9907193,61.1962698 L23.9907193,61.1962698 L37.3100348,65.8507916 C43.0312258,67.7505964 47.2104602,70.3417191 49.8477378,73.6241596 C52.4743813,76.9066002 53.787703,80.8275862 53.787703,85.3871178 L53.787703,85.3871178 C53.787703,88.4479144 53.1762374,91.2554037 51.9533063,93.8095858 C50.7197409,96.3532133 48.9757347,98.5221572 46.7212877,100.316417 C44.4668407,102.110677 41.7551237,103.509145 38.5861369,104.51182 C35.41715,105.50394 31.891918,106 28.0104408,106 L28.0104408,106 C22.6082753,106 18.2057231,105.134533 14.8027842,103.4036 C11.4104795,101.683221 8.79978732,99.4034555 6.97070766,96.5643028 L6.97070766,96.5643028 Z M67,69.4683022 L67,69.4683022 C67.0422115,64.0057172 67.9181005,59.0344478 69.6276669,54.5544941 C71.3266804,50.0745405 73.7063547,46.2285425 76.7666896,43.0165002 C79.8270245,39.793892 83.4624914,37.3161818 87.6730902,35.5833695 C91.8836889,33.8611232 96.5164028,33 101.571232,33 L101.571232,33 C106.65772,33 111.316816,33.8611232 115.54852,35.5833695 C119.790778,37.3161818 123.415692,39.7674772 126.423262,42.9372558 C129.441386,46.1176002 131.789401,49.9477493 133.467309,54.427703 C135.15577,58.9076567 136,63.8736431 136,69.3256622 L136,69.3256622 C136,74.7037198 135.15577,79.6432914 133.467309,84.1443769 C131.789401,88.6454624 129.441386,92.5125923 126.423262,95.7457664 C123.415692,98.9895064 119.790778,101.50948 115.54852,103.305688 C111.316816,105.101896 106.65772,106 101.571232,106 L101.571232,106 C96.3792154,106 91.6779078,105.112462 87.467309,103.337386 C83.2567103,101.56231 79.6476256,99.0687509 76.6400551,95.8567086 C73.6219316,92.6341004 71.273916,88.7828195 69.5960083,84.3028658 C67.9075476,79.8229121 67.0422115,74.8780576 67,69.4683022 Z M80,69.9681177 L80,69.9681177 C80,73.9427754 80.5628135,77.5348457 81.6884404,80.7443286 C82.8140673,83.9538116 84.3604893,86.6850603 86.3277064,88.9380748 C88.2949235,91.1910893 90.5724771,92.9339873 93.160367,94.1667689 C95.737737,95.388923 98.488685,96 101.413211,96 L101.413211,96 C104.453456,96 107.288563,95.3995504 109.918532,94.1986511 C112.548502,92.9977519 114.836575,91.2654813 116.782752,89.0018394 C118.72893,86.7488249 120.254312,84.0175761 121.358899,80.8080932 C122.452966,77.5986103 123,73.9852851 123,69.9681177 L123,69.9681177 C123,65.7702841 122.452966,62.0453709 121.358899,58.7933783 C120.254312,55.5307582 118.73945,52.8048232 116.814312,50.6155733 C114.889174,48.4263233 112.601101,46.7737584 109.950092,45.6578786 C107.299083,44.5526262 104.453456,44 101.413211,44 L101.413211,44 C98.488685,44 95.737737,44.5526262 93.160367,45.6578786 C90.5724771,46.7737584 88.2949235,48.4263233 86.3277064,50.6155733 C84.3604893,52.8048232 82.8140673,55.5307582 81.6884404,58.7933783 C80.5628135,62.0453709 80,65.7702841 80,69.9681177 Z M160.355231,44.8533823 L149,44.8533823 L149,34.7621671 L160.355231,34.7621671 L160.355231,23.922865 C160.439578,19.9118457 161.014193,16.4154678 162.079075,13.4337313 C163.143958,10.4519947 164.651663,7.95837159 166.60219,5.95286195 C168.542174,3.94735231 170.888078,2.45117845 173.639903,1.46434037 C176.381184,0.488113458 179.433496,0 182.796837,0 L182.796837,0 C185.148013,0 187.251419,0.111417202 189.107056,0.334251607 C190.962693,0.557086012 192.623277,0.859504132 194.088808,1.24150597 C195.554339,1.61289664 196.851176,2.02142639 197.979319,2.46709519 C199.107461,2.912764 200.114355,3.35843281 201,3.80410162 L201,3.80410162 L197.20438,12.7015611 C195.791565,11.9375574 193.946472,11.2902765 191.6691,10.7597184 C189.391727,10.2291603 187.008921,9.96388124 184.520681,9.96388124 L184.520681,9.96388124 C180.851582,9.96388124 177.962693,11.1098867 175.854015,13.4018978 C173.75588,15.6939088 172.706813,19.0682583 172.706813,23.5249464 L172.706813,23.5249464 L172.706813,34.7621671 L188.648418,34.7621671 L188.648418,44.8533823 L172.706813,44.8533823 L172.706813,92.5081114 L183.461071,92.5081114 L183.461071,104 L149.99635,104 L149.99635,92.5081114 L160.355231,92.5081114 L160.355231,44.8533823 Z M207,45.3388529 L196,45.3388529 L196,35.2736429 L207.142857,35.2736429 L207.142857,18.7311369 L219.269841,13 L219.269841,35.2736429 L235.460317,35.2736429 L235.460317,45.3388529 L219.142857,45.3388529 L218.936508,85.2027996 C218.936508,87.9122567 219.248677,90.1136907 219.873016,91.8071014 C220.497354,93.4899283 221.497354,94.6541482 222.873016,95.299761 C224.248677,95.9453738 225.804233,96.2681803 227.539683,96.2681803 L227.539683,96.2681803 C229.402116,96.2681803 231.042328,96.0988392 232.460317,95.7601571 C233.888889,95.4320587 235.444444,94.8658245 237.126984,94.0614544 L237.126984,94.0614544 L240,102.39621 C237.862434,103.507511 235.619048,104.385968 233.269841,105.031581 C230.910053,105.677194 228.132275,106 224.936508,106 L224.936508,106 C221.910053,106 219.275132,105.634858 217.031746,104.904575 C214.78836,104.163708 212.899471,102.930693 211.365079,101.205531 C209.830688,99.4697849 208.687831,97.1466371 207.936508,94.2360874 C207.185185,91.3255377 206.809524,87.6899966 206.809524,83.329464 L206.809524,83.329464 L207,45.3388529 Z M260.019277,46.4524138 L250,46.4524138 L250,35 L272.583133,35 L272.583133,92.5475862 L283,92.5475862 L283,104 L250.143133,104 L250.143133,92.5475862 L260.019277,92.5475862 L260.019277,46.4524138 Z M258,10.3609091 L258,10.3609091 C258,9.23787879 258.228327,8.17151515 258.684982,7.16181818 C259.152015,6.14181818 259.764347,5.25060606 260.521978,4.48818182 C261.279609,3.73606061 262.18254,3.13333333 263.230769,2.68 C264.278999,2.22666667 265.389499,2 266.562271,2 L266.562271,2 C267.703907,2 268.783272,2.22666667 269.800366,2.68 C270.827839,3.13333333 271.720391,3.73606061 272.478022,4.48818182 C273.246032,5.25060606 273.858364,6.14181818 274.315018,7.16181818 C274.771673,8.17151515 275,9.23787879 275,10.3609091 L275,10.3609091 C275,11.5354545 274.771673,12.6430303 274.315018,13.6836364 C273.858364,14.7139394 273.246032,15.6309091 272.478022,16.4345455 C271.720391,17.2381818 270.827839,17.8666667 269.800366,18.32 C268.783272,18.7733333 267.703907,19 266.562271,19 L266.562271,19 C265.389499,19 264.278999,18.7733333 263.230769,18.32 C262.18254,17.8666667 261.279609,17.2381818 260.521978,16.4345455 C259.764347,15.6309091 259.152015,14.7139394 258.684982,13.6836364 C258.228327,12.6430303 258,11.5354545 258,10.3609091 Z M294.941042,46.4421553 L289,46.4421553 L289,35 L310.873835,35 L310.873835,46.4421553 L307.680923,46.4421553 L319.753628,90.4358162 L336.290057,35 L346.694822,35 L362.51642,90.2931854 L375.113334,46.4421553 L371.11028,46.4421553 L371.11028,35 L393,35 L393,46.4421553 L387.058958,46.4421553 L368.107988,105 L356.638919,105 L340.960287,49.9603803 L325.361081,105 L313.749045,105 L294.941042,46.4421553 Z M402,86.6609761 L402,86.6609761 C402,83.7105129 402.436281,81.0955716 403.308842,78.8161523 C404.170763,76.5367331 405.330631,74.5555556 406.788447,72.8726198 C408.235622,71.2003356 409.93286,69.7943387 411.880162,68.654629 C413.827464,67.5149194 415.859894,66.5988911 417.977451,65.9065441 C420.10565,65.2141971 422.271092,64.7189028 424.473778,64.420661 C426.687104,64.1330707 428.799341,63.9892756 430.810489,63.9892756 L430.810489,63.9892756 C434.03471,63.9892756 436.737522,64.0904647 438.918926,64.2928431 C441.11097,64.4952214 443.100836,64.7721602 444.888523,65.1236594 L444.888523,65.1236594 L444.952369,59.4357627 C444.952369,56.9752681 444.595896,54.839644 443.882949,53.0288903 C443.170003,51.2074852 442.164429,49.7056249 440.866228,48.5233093 C439.568026,47.3409937 438.014441,46.4569198 436.205473,45.8710878 C434.396504,45.2959072 432.374715,45.0083169 430.140106,45.0083169 L430.140106,45.0083169 C428.043831,45.0083169 426.032683,45.1521121 424.106663,45.4397023 C422.191285,45.7272926 420.392957,46.1054206 418.71168,46.5740862 C417.041044,47.0427519 415.50342,47.5806522 414.098809,48.1877873 C412.683557,48.7949223 411.486445,49.4340118 410.507474,50.1050558 L410.507474,50.1050558 L406.421333,41.4453929 C408.070687,40.3695922 409.879655,39.3736777 411.848239,38.4576494 C413.816823,37.5416211 415.881176,36.7587364 418.041297,36.1089954 C420.21206,35.4592544 422.425386,34.9479828 424.681277,34.5751806 C426.937167,34.1917269 429.161135,34 431.35318,34 L431.35318,34 C435.375475,34 438.993413,34.4793171 442.206993,35.4379514 C445.431214,36.4072372 448.155308,37.898446 450.379275,39.911578 C452.613884,41.92471 454.337725,44.4810681 455.550798,47.5806522 C456.75323,50.6908879 457.354446,54.41891 457.354446,58.7647188 L457.354446,58.7647188 L457.2906,93.5152112 L465,93.5152112 L465,105.050777 L444.824677,105.050777 L444.824677,98.6119501 C442.185711,101.072445 439.270079,103.085577 436.077781,104.651346 C432.885483,106.217115 429.256904,107 425.192045,107 L425.192045,107 C421.786927,107 418.669116,106.4621 415.838612,105.386299 C412.997466,104.310498 410.550038,102.845918 408.496326,100.992559 C406.442615,99.1391989 404.846466,96.9822718 403.707879,94.5217772 C402.569293,92.0612826 402,89.4410155 402,86.6609761 Z M414,85.0935994 L414,85.0935994 C414,86.9086947 414.33178,88.4916265 414.995339,89.842395 C415.669601,91.1931636 416.627481,92.3223216 417.86898,93.2298692 C419.099776,94.1479697 420.571379,94.8391833 422.283791,95.30351 C423.996202,95.7678367 425.885206,96 427.950803,96 L427.950803,96 C429.609701,96 431.2686,95.7994953 432.927499,95.3984859 C434.5971,94.9974765 436.170378,94.4540032 437.647333,93.7680661 C439.134991,93.0821289 440.510271,92.2853866 441.773175,91.377839 C443.025375,90.4702914 444.079579,89.5258087 444.935785,88.5443909 L444.935785,88.5443909 L445,73 L430.439151,73 C428.009667,73 425.794234,73.263822 423.792853,73.7914659 C421.802175,74.3296628 420.07371,75.1052994 418.607457,76.1183758 C417.151907,77.142005 416.017435,78.4030741 415.204039,79.9015829 C414.401346,81.4106446 414,83.1413168 414,85.0935994 Z M512.494885,105 L478,105 L478,93.4717153 L487.590793,93.4717153 L487.654731,47.0711679 L478,47.0711679 L478,35.5428832 L500.21867,35.5428832 L500.21867,45.1231752 C501.017903,43.6967762 501.9237,42.36618 502.936061,41.1313869 C503.937766,39.9072384 505.056692,38.8374392 506.292839,37.9219891 C507.518329,37.0065389 508.882353,36.288017 510.38491,35.7664234 C511.887468,35.2554745 513.507246,35 515.244246,35 L515.244246,35 C517.578005,35 519.773231,35 521.829923,35 C523.886616,35 525.943308,35.0425791 528,35.1277372 L528,35.1277372 L528,50.2166971 L515.244246,50.2166971 L515.244246,45.9215328 C513.773657,45.9215328 512.265772,46.2036192 510.720588,46.767792 C509.175405,47.32132 507.731458,48.1729015 506.388747,49.3225365 C505.046036,50.4615268 503.873828,51.9092153 502.872123,53.6656022 C501.859761,55.4326338 501.129795,57.5243309 500.682225,59.9406934 L500.682225,59.9406934 L500.682225,93.4717153 L512.494885,93.4717153 L512.494885,105 Z M542,69.1657218 L542,69.1657218 C542,64.2205262 542.693122,59.5512429 544.079365,55.1578718 C545.455026,50.7751127 547.507937,46.9441779 550.238095,43.6650676 C552.968254,40.3859573 556.354497,37.7913214 560.396825,35.8811601 C564.449735,33.9603867 569.164021,33 574.539683,33 L574.539683,33 C579.73545,33 584.079365,33.7905946 587.571429,35.3717837 C591.05291,36.9529728 593.89418,39.0488443 596.095238,41.6593982 C598.296296,44.269952 599.962963,47.2466201 601.095238,50.5894025 C602.227513,53.9321849 603.015873,57.3386393 603.460317,60.8087658 L603.460317,60.8087658 C603.68254,62.506687 603.825397,64.2205262 603.888889,65.9502835 C603.962963,67.6906527 604,69.3885739 604,71.0440471 L604,71.0440471 L554.269841,71.0440471 C554.269841,72.9966565 554.412698,74.7900858 554.698413,76.4243349 C554.994709,78.0479721 555.407407,79.5920192 555.936508,81.0564762 L555.936508,81.0564762 C557.57672,85.5135194 560.21164,88.8669138 563.84127,91.1166594 C567.460317,93.377017 571.555556,94.5071958 576.126984,94.5071958 L576.126984,94.5071958 C579.73545,94.5071958 583.238095,94.0031255 586.634921,92.9949847 C590.031746,91.997456 593.597884,90.4268789 597.333333,88.2832534 L597.333333,88.2832534 L602.333333,96.7675534 C597.793651,99.8874836 593.238095,102.206207 588.666667,103.723724 C584.084656,105.241241 579.328042,106 574.396825,106 L574.396825,106 C569.730159,106 565.407407,105.220017 561.428571,103.660052 C557.460317,102.100087 554.042328,99.7813636 551.174603,96.7038814 C548.306878,93.6263992 546.063492,89.7954645 544.444444,85.2110772 C542.814815,80.6160779 542,75.2676261 542,69.1657218 Z M555,62 L555,62 L591,62 C590.819069,59.3996448 590.403991,57.0017762 589.754767,54.8063943 C589.105543,52.6216696 588.110421,50.7193606 586.769401,49.0994671 C585.439024,47.4902309 583.720177,46.2380107 581.61286,45.3428064 C579.516186,44.4476021 576.924612,44 573.838137,44 L573.838137,44 C570.932594,44 568.394235,44.4156306 566.22306,45.2468917 C564.062528,46.0781528 562.221286,47.2664298 560.699335,48.8117229 C559.177384,50.3463588 557.958758,52.2326821 557.043459,54.4706927 C556.12816,56.7087034 555.447007,59.2184725 555,62 Z" id="Shape"></path>
            </g>
        </g>
    </g>
</svg>